# xmcd
#
# Track frame offsets:
#	150
#	17244
#	33940
#	52393
#	71130
#	93704
#	112949
#	131876
#	148068
#	166760
#	184612
#	206162
#	226815
#	244223
#	262859
#	275771
#	288473
#	305451
#	322629
#
# Disc length: 4555 seconds
#
# Revision: 0
# Processed by: cddbd v1.5.2PL0 Copyright (c) Steve Scherf et al.
# Submitted via: audiograbber 1.83.01
#
DISCID=1c11c913
DTITLE=Various Artist - Legends 14
DYEAR=1900
DGENRE=Karaoke
TTITLE0=Pearl's a singer
TTITLE1=Sunshine after the rain
TTITLE2=Lilac Wine
TTITLE3=Don't cry out loud
TTITLE4=No more the fool
TTITLE5=Amoureuse
TTITLE6=I've got the music in me
TTITLE7=Star
TTITLE8=Lost in France
TTITLE9=It's a heartache
TTITLE10=Total eclipse of the heart
TTITLE11=Holding out for a hero
TTITLE12=Can the Can
TTITLE13=If you can give me love
TTITLE14=Bang Bang, my baby shot me down
TTITLE15=Gypsies tramps and thieves
TTITLE16=Dark lady
TTITLE17=I found someone
TTITLE18=If I could turn back time
EXTD=
EXTT0=
EXTT1=
EXTT2=
EXTT3=
EXTT4=
EXTT5=
EXTT6=
EXTT7=
EXTT8=
EXTT9=
EXTT10=
EXTT11=
EXTT12=
EXTT13=
EXTT14=
EXTT15=
EXTT16=
EXTT17=
EXTT18=
PLAYORDER=
